<svg height="496pt" viewBox="-24 0 496 496" width="496pt" xmlns="http://www.w3.org/2000/svg" xmlns:xlink="http://www.w3.org/1999/xlink"><linearGradient id="a" gradientUnits="userSpaceOnUse" x1="-37.352" x2="436.72" y1="461.352" y2="-12.72"><stop offset="0" stop-color="#003f8a"/><stop offset=".518" stop-color="#00d7df"/><stop offset="1" stop-color="#006df0"/></linearGradient><path d="m440 0h-432c-4.417969 0-8 3.582031-8 8v152c0 3.59375 2.398438 6.746094 5.863281 7.707031 3.460938.960938 7.140625-.507812 8.992188-3.585937l45.671875-76.121094h123.472656v336h-80c-4.417969 0-8 3.582031-8 8v56c0 4.417969 3.582031 8 8 8h240c4.417969 0 8-3.582031 8-8v-56c0-4.417969-3.582031-8-8-8h-80v-336h123.472656l45.671875 76.121094c1.851563 3.078125 5.53125 4.546875 8.992188 3.585937 3.464843-.960937 5.863281-4.113281 5.863281-7.707031v-152c0-4.417969-3.582031-8-8-8zm-8 131.121094-33.144531-55.242188c-1.445313-2.40625-4.046875-3.878906-6.855469-3.878906h-136c-4.417969 0-8 3.582031-8 8v352c0 4.417969 3.582031 8 8 8h80v40h-224v-40h80c4.417969 0 8-3.582031 8-8v-352c0-4.417969-3.582031-8-8-8h-136c-2.808594 0-5.410156 1.472656-6.855469 3.878906l-33.144531 55.242188v-115.121094h416zm0 0" fill="url(#a)"/></svg>